HIERARCHY
ROOT hip
{
	OFFSET 0.000000 0.000000 0.000000 
	CHANNELS 6 Xposition Yposition Zposition Xrotation Zrotation Yrotation
	JOINT abdomen
	{
		OFFSET 0.000000 3.402643 0.000000 
		CHANNELS 3 Xrotation Zrotation Yrotation
		JOINT chest
		{
			OFFSET 0.000000 8.438565 -0.680529 
			CHANNELS 3 Xrotation Zrotation Yrotation
			JOINT neck
			{
				OFFSET 0.000000 10.207942 -0.272212 
				CHANNELS 3 Xrotation Zrotation Yrotation
				JOINT head
				{
					OFFSET 0.000000 3.130431 0.000000 
					CHANNELS 3 Xrotation Zrotation Yrotation
					End Site
					{
						OFFSET 0.000000 3.130435 0.000000 
					}
				}
			}
			JOINT lCollar
			{
				OFFSET 3.470700 6.669187 -0.816635 
				CHANNELS 3 Yrotation Zrotation Xrotation
				JOINT lShldr
				{
					OFFSET 3.198488 0.000000 0.000000 
					CHANNELS 3 Zrotation Yrotation Xrotation
					JOINT lForeArm
					{
						OFFSET 10.139888 0.000000 0.000000 
						CHANNELS 3 Yrotation Zrotation Xrotation
						JOINT lHand
						{
							OFFSET 8.370511 0.000000 0.000000 
							CHANNELS 3 Zrotation Yrotation Xrotation
							End Site
							{
								OFFSET 4.083176 0.000000 0.000000 
							}
						}
					}
				}
			}
			JOINT rCollar
			{
				OFFSET -3.470700 6.669187 -0.816635 
				CHANNELS 3 Yrotation Zrotation Xrotation
				JOINT rShldr
				{
					OFFSET -3.198488 0.000000 0.000000 
					CHANNELS 3 Zrotation Yrotation Xrotation
					JOINT rForeArm
					{
						OFFSET -10.139888 0.000000 0.000000 
						CHANNELS 3 Yrotation Zrotation Xrotation
						JOINT rHand
						{
							OFFSET -8.370511 0.000000 0.000000 
							CHANNELS 3 Zrotation Yrotation Xrotation
							End Site
							{
								OFFSET -4.083176 0.000000 0.000000 
							}
						}
					}
				}
			}
		}
	}
	JOINT lThigh
	{
		OFFSET 5.308129 -1.633274 1.361059 
		CHANNELS 3 Xrotation Zrotation Yrotation
		JOINT lShin
		{
			OFFSET -2.041588 -20.007561 0.000000 
			CHANNELS 3 Xrotation Zrotation Yrotation
			JOINT lFoot
			{
				OFFSET 0.000000 -19.190928 -1.224953 
				CHANNELS 3 Xrotation Yrotation Zrotation
				End Site
				{
					OFFSET 0.000000 -2.449906 4.627600 
				}
			}
		}
	}
	JOINT rThigh
	{
		OFFSET -5.308129 -1.633274 1.361059 
		CHANNELS 3 Xrotation Zrotation Yrotation
		JOINT rShin
		{
			OFFSET 2.041588 -20.007561 0.000000 
			CHANNELS 3 Xrotation Zrotation Yrotation
			JOINT rFoot
			{
				OFFSET 0.000000 -19.190928 -1.224953 
				CHANNELS 3 Xrotation Yrotation Zrotation
				End Site
				{
					OFFSET 0.000000 -2.449906 4.627600 
				}
			}
		}
	}
}
MOTION
Frames: 13
Frame Time: 0.033333
12.150670 53.311882 -44.109940 0.732422 17.548794 -85.338860 35.674274 -1.774092 -16.414007 -16.054688 9.531673 -0.428175 51.553619 8.070152 2.616707 -62.402344 -10.429687 26.052921 2.000000 -2.000000 0.000000 -32.714840 -32.128906 1.762387 -132.707687 1.971950 -2.302272 12.036179 -11.678172 -10.934054 -2.000000 2.000000 0.000000 16.308594 -49.423828 17.910158 111.106621 -1.026227 -2.921284 -38.719730 -39.530487 18.450762 -12.841789 6.705173 52.842766 12.451835 -5.686864 -1.594667 -0.278522 -1.671549 -8.109047 -12.918938 -8.689507 -27.368446 11.793469 5.564630 1.262812 0.177122 -5.521186 11.616844 
11.068677 53.470051 -45.069931 0.166016 18.427732 -87.792969 35.340828 -3.142125 -16.507559 -16.425783 9.199219 -0.205078 51.553619 8.070152 2.616707 -62.148438 -9.931640 27.148439 2.000000 -2.000000 0.000000 -27.216797 -32.343750 4.496731 -132.707687 1.971950 -2.302272 12.167108 -11.071177 -9.660630 -2.000000 2.000000 0.000000 13.603515 -48.984371 24.580078 111.457642 -1.017607 -2.901229 -39.459438 -38.835114 22.646900 -12.675744 6.712281 52.691479 10.316500 -5.715204 -1.408343 -1.690632 -1.148244 -9.283193 -11.530990 -6.773445 -27.078129 8.085111 5.653652 0.906106 0.526921 -3.809627 10.740396 
10.730610 53.501682 -46.023598 -0.566406 19.140656 -90.524147 35.190922 -4.580553 -16.466154 -16.806643 8.867188 0.000000 51.553619 8.070152 2.616707 -61.542969 -9.306641 27.996468 2.000000 -2.000000 0.000000 -24.365234 -31.162109 7.216797 -132.894791 2.105980 -2.017088 13.267263 -12.259285 -8.556034 -2.000000 2.000000 0.000000 12.939453 -48.457031 28.459490 111.983635 -1.010682 -2.851937 -40.984909 -37.946079 27.330303 -13.916012 8.705943 50.715748 11.774551 -5.704414 -1.526084 -0.519026 0.172886 -7.956883 -11.568913 -5.473902 -25.465832 5.953609 5.660775 0.671575 0.553951 -2.593476 10.961714 
10.848654 53.414688 -46.911308 -1.142578 19.316404 -93.160828 34.880886 -6.145714 -16.249907 -17.167969 8.535157 0.224609 51.553619 8.070152 2.616707 -60.615238 -9.062499 28.466799 2.000000 -2.000000 0.000000 -23.320313 -28.046875 9.111328 -132.738388 2.290642 -2.037667 13.807421 -13.492731 -7.359306 -2.000000 2.000000 0.000000 14.492187 -47.138672 28.867188 111.632607 -1.019301 -2.871993 -41.740734 -37.184151 29.510361 -16.415665 11.993022 46.839664 16.705257 -5.548435 -1.748647 1.098313 1.740237 -7.800343 -12.255034 -4.257349 -23.418489 5.608775 5.666731 0.485964 -0.348931 -2.318424 11.465322 
11.121976 53.169548 -47.694317 -1.689453 19.306639 -95.976563 34.931889 -7.781162 -15.903727 -17.363281 8.203125 0.468750 51.553619 8.070152 2.616707 -58.544926 -9.794921 29.257816 2.000000 -2.000000 0.000000 -23.417969 -22.734377 9.908336 -130.428482 2.145064 -2.185611 13.700565 -13.630848 -6.015351 -2.000000 2.000000 0.000000 18.359375 -46.435547 25.478514 109.703621 -1.048705 -3.039922 -40.554325 -37.293587 27.207405 -19.872557 15.718450 41.901726 22.690899 -5.308227 -2.652145 4.696280 4.297875 -8.397204 -13.548302 -3.501019 -21.357220 7.028154 5.663292 0.785095 -2.598791 -1.230586 11.741488 
12.192698 53.043018 -47.863281 -1.875000 18.271484 -98.818359 35.683643 -9.400102 -15.210463 -17.373047 7.861328 0.751953 51.553619 8.070152 2.616707 -55.947269 -10.751952 29.746096 2.000000 -2.000000 0.000000 -23.857422 -15.302735 8.085938 -124.737206 1.683105 -2.558934 12.336018 -10.356295 -4.592526 -2.000000 2.000000 0.000000 25.068357 -44.238281 17.314453 106.696075 -0.756226 -3.023006 -39.431854 -38.071426 22.953524 -23.103981 18.899853 35.680130 29.052343 -5.007050 -3.245644 8.932920 5.624115 -9.760382 -16.468281 -3.599649 -19.034296 12.854193 5.524232 1.244712 -2.692955 -0.786877 12.101695 
13.577110 52.497372 -47.721405 -1.660156 16.494139 -101.708984 36.588535 -11.345448 -13.952804 -17.041016 7.333985 1.210938 51.553619 8.070152 2.616707 -53.457035 -11.152343 29.111328 2.000000 -2.000000 0.000000 -26.132814 -6.562500 4.765625 -116.954056 1.284522 -2.516193 10.045938 -5.790156 -3.154706 -2.000000 2.000000 0.000000 30.966797 -39.580078 9.554326 104.410614 -0.795787 -3.015516 -37.914665 -38.415138 17.984211 -26.628929 21.098984 27.845749 37.332920 -4.523905 -3.664876 9.690575 7.463607 -10.114877 -20.289236 -3.875092 -16.646301 21.501150 5.233747 2.263888 -3.792599 -0.154894 12.906344 
14.042953 51.730289 -47.598839 -1.269531 14.228516 -104.726563 36.530548 -13.033358 -12.112614 -16.845703 7.666016 1.669922 51.553619 8.070152 2.616707 -50.771484 -11.201171 27.166073 2.000000 -2.000000 0.000000 -29.003906 2.138672 1.123047 -109.363289 0.910221 -2.729098 8.621501 -1.788615 -2.191880 -2.000000 2.000000 0.000000 32.060547 -32.812504 5.625000 104.234550 -0.815850 -3.006898 -36.211655 -38.284863 14.913759 -30.107214 22.802458 17.649227 46.516384 -4.065746 -4.475848 8.915089 10.131751 -9.576411 -21.613710 -3.493014 -14.086296 27.485855 4.784233 2.634065 -6.340666 0.387423 14.113163 
13.296511 51.295364 -47.608315 -0.908203 11.767579 -107.763672 34.894974 -14.227834 -9.707744 -17.158203 8.876953 2.412109 51.553619 8.070152 2.616707 -47.802734 -9.658202 23.378908 2.000000 -2.000000 0.000000 -31.132813 11.591798 -1.804677 -100.897041 0.519687 -2.716155 9.773736 -0.685025 -1.253840 -2.000000 2.000000 0.000000 29.267580 -25.908201 5.737922 106.527138 -0.966603 -2.937392 -34.868645 -37.260372 13.256703 -30.843390 23.948374 10.422885 50.545551 -3.919531 -4.691605 7.512236 11.392165 -8.364431 -18.910219 -3.074322 -11.416934 28.186190 4.744844 2.674145 -9.931355 1.141356 14.656929 
12.238373 51.453514 -47.590458 -0.537109 9.824234 -110.847977 32.586731 -15.484090 -6.786727 -17.441406 10.449220 3.212891 51.553619 8.070152 2.616707 -45.595703 -6.308593 17.772367 2.000000 -2.000000 0.000000 -32.216797 21.914063 -3.394792 -92.623672 0.513897 -2.647370 11.258410 0.071839 -0.325308 -2.000000 2.000000 0.000000 25.283201 -18.896484 6.318359 110.255394 -1.622625 -2.926439 -32.770531 -36.388779 12.549926 -26.918758 24.993866 8.926022 45.084354 -4.143419 -4.519862 3.657256 12.119966 -6.549760 -15.466841 -2.646113 -8.900350 26.435373 4.843480 2.519900 -9.714770 1.771714 15.705027 
11.192347 51.809368 -47.490726 -0.537109 8.427748 -113.982979 29.771835 -16.252930 -3.579930 -17.880859 12.363282 3.857423 51.553619 8.070152 2.616707 -45.527344 -2.978516 11.425275 2.000000 -2.000000 0.000000 -31.328125 30.683598 -1.381733 -87.497658 0.083235 -2.651647 12.579078 0.506704 0.144493 -2.000000 2.000000 0.000000 20.332029 -11.269531 6.943135 114.659752 -1.583628 -2.924184 -31.229919 -35.176876 12.060134 -20.224611 25.888481 10.024683 34.527687 -4.680508 -3.211664 -2.237463 11.552391 -4.912152 -12.653888 -2.958665 -5.916593 24.331320 5.198716 1.724126 -7.936024 2.635005 16.421831 
10.230329 52.315483 -47.201756 -1.250000 8.427734 -117.254433 27.503132 -16.448139 -0.971524 -18.144531 13.945313 4.641026 51.553619 8.070152 2.616707 -48.681644 -0.615234 5.009766 2.000000 -2.000000 0.000000 -27.958984 37.841797 5.361329 -85.921867 0.109232 -2.878041 12.748768 1.778374 0.602270 -2.000000 2.000000 0.000000 14.921873 -3.330078 7.958984 119.617485 -1.892367 -2.492877 -29.958036 -34.151203 11.849977 -15.505857 26.079132 9.473120 25.721327 -5.146023 -2.931291 -3.930201 11.268187 -4.610689 -11.654857 -3.894702 -3.584355 22.031826 5.271282 1.519536 -4.155018 1.390017 15.326970 
9.291198 52.805779 -46.728256 -2.861328 9.462891 -120.701515 26.258413 -16.140423 0.725371 -18.095705 14.980470 5.029297 51.553619 8.070152 2.616707 -54.687500 1.630859 -0.341797 2.000000 -2.000000 0.000000 -23.320311 43.378906 13.844598 -85.921867 0.109232 -2.878041 12.136412 3.392323 0.508991 -2.000000 2.000000 0.000000 9.365235 6.250000 8.331142 124.214584 -2.072385 -2.425117 -28.811298 -33.423874 11.730209 -14.977196 24.446795 4.489316 20.608160 -5.354549 -2.440610 0.492646 9.992231 -5.827020 -11.888302 -5.163312 -1.382652 19.387520 5.378716 1.725809 -0.671143 0.466996 14.414611 
